<?xml version="1.0" encoding="UTF-8" standalone="no"?>
<!-- Created with Inkscape (http://www.inkscape.org/) -->

<svg
   width="1220mm"
   height="610mm"
   viewBox="0 0 1220 610"
   version="1.1"
   id="svg5"
   inkscape:version="1.1.1 (c3084ef, 2021-09-22)"
   sodipodi:docname="drawing-4.svg"
   xmlns:inkscape="http://www.inkscape.org/namespaces/inkscape"
   xmlns:sodipodi="http://sodipodi.sourceforge.net/DTD/sodipodi-0.dtd"
   xmlns="http://www.w3.org/2000/svg"
   xmlns:svg="http://www.w3.org/2000/svg">
  <sodipodi:namedview
     id="namedview7"
     pagecolor="#ffffff"
     bordercolor="#666666"
     borderopacity="1.0"
     inkscape:pageshadow="2"
     inkscape:pageopacity="0.0"
     inkscape:pagecheckerboard="0"
     inkscape:document-units="mm"
     showgrid="false"
     units="mm"
     inkscape:zoom="0.92370266"
     inkscape:cx="467.14167"
     inkscape:cy="166.17902"
     inkscape:window-width="1312"
     inkscape:window-height="815"
     inkscape:window-x="0"
     inkscape:window-y="25"
     inkscape:window-maximized="0"
     inkscape:current-layer="layer1" />
  <defs
     id="defs2" />
  <g
     inkscape:label="Layer 1"
     inkscape:groupmode="layer"
     id="layer1">
    <g
       id="g4849"
       transform="matrix(0.85275933,0,0,0.73261442,-13.528474,-13.655766)">
      <path
         id="rect1076"
         style="fill:none;stroke:#ff0000;stroke-width:1.665;stroke-opacity:1"
         d="M 22.537943,19.532885 H 210.85497 V 174.79427 H 22.537943 Z" />
    </g>
    <path
       id="path846"
       style="fill:none;stroke:#00ff00;stroke-width:1.87592"
       d="M 51.64304,45.085001 A 14.06204,14.062041 0 0 1 37.581,59.147042 14.06204,14.062041 0 0 1 23.51896,45.085001 14.06204,14.062041 0 0 1 37.581,31.02296 14.06204,14.062041 0 0 1 51.64304,45.085001 Z" />
    <path
       id="path846-9"
       style="fill:none;stroke:#00ff00;stroke-width:1.87592"
       d="M 150.41271,45.085001 A 14.06204,14.062041 0 0 1 136.35067,59.147042 14.06204,14.062041 0 0 1 122.28862,45.085001 14.06204,14.062041 0 0 1 136.35067,31.02296 14.06204,14.062041 0 0 1 150.41271,45.085001 Z" />
    <path
       id="rect972"
       style="fill:#800080;stroke:#00ff00;stroke-width:1.95632"
       d="m 68.75616,22.683606 h 36.04368 V 52.727288 H 68.75616 Z" />
    <g
       aria-label="cancel"
       transform="matrix(-1.031957,0,0,0.9690326,201.62931,-17.662145)"
       id="text1627"
       style="font-size:10.2556px;line-height:1.25;stroke-width:0.256389">
      <path
         d="m 52.597922,93.726806 q -0.470716,0.225343 -0.896363,0.350533 -0.42064,0.125191 -0.896364,0.125191 -0.605922,0 -1.111691,-0.175267 -0.505769,-0.180274 -0.866318,-0.540823 -0.365556,-0.360548 -0.56586,-0.911386 -0.200305,-0.550838 -0.200305,-1.286958 0,-1.372087 0.751142,-2.153275 0.756151,-0.781188 1.993032,-0.781188 0.480731,0 0.941432,0.135205 0.465709,0.135206 0.851295,0.330503 v 1.046592 h -0.05008 q -0.430655,-0.33551 -0.891356,-0.515784 -0.455693,-0.180275 -0.891356,-0.180275 -0.801219,0 -1.266927,0.540823 -0.460701,0.535815 -0.460701,1.577399 0,1.011539 0.450686,1.557369 0.455693,0.540823 1.276942,0.540823 0.285434,0 0.580884,-0.07511 0.295449,-0.07511 0.530807,-0.195297 0.205312,-0.10516 0.385587,-0.220335 0.180274,-0.120183 0.285434,-0.205313 h 0.05008 z"
         id="path3725" />
      <path
         d="m 58.156377,94.077339 h -0.936424 v -0.595906 q -0.125191,0.08513 -0.340518,0.240365 -0.21032,0.150229 -0.410625,0.240366 -0.235358,0.115175 -0.540823,0.190289 -0.305464,0.08012 -0.716089,0.08012 -0.75615,0 -1.28195,-0.500761 -0.5258,-0.500762 -0.5258,-1.276943 0,-0.635967 0.270412,-1.026561 0.275419,-0.395602 0.781188,-0.620945 0.510777,-0.225343 1.226866,-0.305464 0.716089,-0.08012 1.537339,-0.120183 v -0.145221 q 0,-0.320488 -0.115176,-0.530808 -0.110167,-0.21032 -0.320487,-0.330502 -0.200305,-0.115176 -0.480731,-0.155236 -0.280427,-0.04006 -0.585892,-0.04006 -0.370563,0 -0.826256,0.100152 -0.455694,0.09515 -0.941432,0.280426 h -0.05008 v -0.956454 q 0.275419,-0.07512 0.796212,-0.165252 0.520792,-0.09014 1.026561,-0.09014 0.590899,0 1.026562,0.100152 0.44067,0.09514 0.761157,0.330503 0.31548,0.230351 0.480732,0.595907 0.165251,0.365556 0.165251,0.906378 z m -0.936424,-1.377095 v -1.557368 q -0.430656,0.02504 -1.016547,0.07511 -0.580883,0.05008 -0.921401,0.145221 -0.405617,0.115175 -0.655998,0.360548 -0.250381,0.240366 -0.250381,0.666013 0,0.480731 0.290442,0.726105 0.290442,0.240365 0.886348,0.240365 0.495754,0 0.906379,-0.190289 0.410624,-0.195297 0.761158,-0.465709 z"
         id="path3722" />
      <path
         d="m 64.656264,94.077339 h -0.941432 v -3.184844 q 0,-0.385587 -0.04507,-0.721097 -0.04507,-0.340518 -0.165251,-0.530808 -0.125191,-0.21032 -0.360549,-0.310472 -0.235358,-0.10516 -0.610929,-0.10516 -0.385586,0 -0.806226,0.19029 -0.42064,0.190289 -0.806227,0.485738 v 4.176353 h -0.941432 v -5.593508 h 0.941432 v 0.620944 q 0.440671,-0.365556 0.911387,-0.570868 0.470716,-0.205312 0.96647,-0.205312 0.906378,0 1.382102,0.54583 0.475724,0.54583 0.475724,1.572392 z"
         id="path3719" />
      <path
         d="m 70.605313,93.726806 q -0.470716,0.225343 -0.896363,0.350533 -0.42064,0.125191 -0.896364,0.125191 -0.605922,0 -1.111691,-0.175267 -0.505769,-0.180274 -0.866318,-0.540823 -0.365556,-0.360548 -0.56586,-0.911386 -0.200305,-0.550838 -0.200305,-1.286958 0,-1.372087 0.751142,-2.153275 0.756151,-0.781188 1.993032,-0.781188 0.480731,0 0.941432,0.135205 0.465709,0.135206 0.851295,0.330503 v 1.046592 h -0.05008 q -0.430655,-0.33551 -0.891356,-0.515784 -0.455693,-0.180275 -0.891356,-0.180275 -0.801219,0 -1.266927,0.540823 -0.460701,0.535815 -0.460701,1.577399 0,1.011539 0.450686,1.557369 0.455693,0.540823 1.276942,0.540823 0.285434,0 0.580884,-0.07511 0.295449,-0.07511 0.530807,-0.195297 0.205312,-0.10516 0.385587,-0.220335 0.180274,-0.120183 0.285434,-0.205313 h 0.05008 z"
         id="path3716" />
      <path
         d="m 76.499278,91.378234 h -4.121269 q 0,0.515784 0.155237,0.901371 0.155236,0.380579 0.425647,0.625952 0.260396,0.240365 0.615937,0.360548 0.360548,0.120183 0.791203,0.120183 0.570869,0 1.146745,-0.225343 0.580883,-0.23035 0.826257,-0.450685 h 0.05008 v 1.026561 q -0.475724,0.200305 -0.971478,0.335511 -0.495754,0.135205 -1.041584,0.135205 -1.392118,0 -2.173306,-0.751142 -0.781189,-0.756151 -0.781189,-2.143261 0,-1.372087 0.746135,-2.178313 0.751143,-0.806226 1.973002,-0.806226 1.131721,0 1.74265,0.661005 0.615937,0.661006 0.615937,1.877857 z m -0.916394,-0.721097 q -0.005,-0.741128 -0.375571,-1.146745 -0.365556,-0.405617 -1.116699,-0.405617 -0.75615,0 -1.206835,0.445678 -0.445678,0.445678 -0.50577,1.106684 z"
         id="path3713" />
      <path
         d="m 78.877896,94.077339 h -0.941432 v -7.791852 h 0.941432 z"
         id="path3710" />
    </g>
    <g
       aria-label="OK"
       transform="matrix(-1.031957,0,0,0.96903261,205.3335,-17.662145)"
       id="text2603"
       style="font-size:10.2556px;line-height:1.25;stroke-width:0.256389">
      <path
         d="m 161.9215,87.4773 q 0.4557,0.500761 0.69606,1.226866 0.24538,0.726104 0.24538,1.647506 0,0.921402 -0.25038,1.652514 -0.24538,0.726104 -0.69106,1.211843 -0.4607,0.505769 -1.09166,0.761158 -0.62595,0.255388 -1.43217,0.255388 -0.7862,0 -1.43218,-0.260396 -0.64098,-0.260396 -1.09166,-0.75615 -0.45069,-0.495754 -0.69606,-1.216851 -0.24037,-0.721097 -0.24037,-1.647506 0,-0.911386 0.24037,-1.632483 0.24036,-0.726105 0.70106,-1.241889 0.44067,-0.490747 1.09167,-0.751143 0.65599,-0.260396 1.42717,-0.260396 0.80121,0 1.43718,0.265404 0.64098,0.260396 1.08665,0.746135 z m -0.0901,2.874372 q 0,-1.452209 -0.65099,-2.238405 -0.65099,-0.791203 -1.77771,-0.791203 -1.13673,0 -1.78772,0.791203 -0.64598,0.786196 -0.64598,2.238405 0,1.467232 0.66101,2.24842 0.661,0.776181 1.77269,0.776181 1.11169,0 1.76769,-0.776181 0.66101,-0.781188 0.66101,-2.24842 z"
         id="path3735" />
      <path
         d="m 170.42945,94.077339 h -1.28696 l -2.94949,-3.32005 -0.74112,0.791203 v 2.528847 h -0.99151 v -7.456342 h 0.99151 v 3.890919 l 3.6205,-3.890919 h 1.20183 l -3.33006,3.505332 z"
         id="path3732" />
    </g>
    <g
       aria-label="left "
       id="text3003"
       style="font-size:10.5833px;line-height:1.25;stroke-width:0.264583"
       transform="matrix(-1,0,0,1,201.62931,-17.662145)">
      <path
         d="m 58.448171,40.594135 h -0.971514 v -8.040827 h 0.971514 z"
         id="path3695" />
      <path
         d="m 65.212595,37.808784 h -4.252957 q 0,0.532266 0.160196,0.930173 0.160197,0.39274 0.439248,0.645954 0.268717,0.248046 0.635619,0.372069 0.372069,0.124023 0.816485,0.124023 0.589109,0 1.183386,-0.232543 0.599445,-0.237711 0.852659,-0.465087 h 0.05168 v 1.059364 q -0.490925,0.206705 -1.00252,0.346231 -0.511595,0.139526 -1.074866,0.139526 -1.4366,0 -2.24275,-0.775144 -0.80615,-0.780312 -0.80615,-2.211745 0,-1.415929 0.769976,-2.247917 0.775144,-0.831988 2.036045,-0.831988 1.167884,0 1.798335,0.682126 0.635618,0.682127 0.635618,1.937861 z m -0.945676,-0.744138 q -0.0052,-0.764809 -0.387572,-1.183386 -0.377237,-0.418578 -1.152381,-0.418578 -0.780312,0 -1.245398,0.459919 -0.459919,0.459918 -0.52193,1.142045 z"
         id="path3692" />
      <path
         d="m 69.791112,33.493816 h -0.05168 q -0.160196,-0.04651 -0.418578,-0.09302 -0.258381,-0.05168 -0.454751,-0.05168 -0.625283,0 -0.909502,0.279051 -0.279052,0.273885 -0.279052,0.997352 v 0.19637 h 1.751825 v 0.816485 h -1.720819 v 4.955754 h -0.971514 v -4.955754 h -0.656289 v -0.816485 h 0.656289 v -0.191202 q 0,-1.028358 0.511595,-1.576126 0.511595,-0.552936 1.477941,-0.552936 0.325561,0 0.583942,0.03101 0.263549,0.03101 0.480589,0.07235 z"
         id="path3689" />
      <path
         d="m 73.403283,40.542459 q -0.273884,0.07235 -0.599445,0.118855 -0.320393,0.04651 -0.573606,0.04651 -0.883665,0 -1.343583,-0.475422 -0.459919,-0.475422 -0.459919,-1.52445 v -3.069571 h -0.656289 v -0.816485 h 0.656289 v -1.658808 h 0.971514 v 1.658808 h 2.005039 v 0.816485 h -2.005039 v 2.630322 q 0,0.454751 0.02067,0.713133 0.02067,0.253213 0.144694,0.475421 0.113688,0.206705 0.310057,0.30489 0.201538,0.09302 0.60978,0.09302 0.237711,0 0.496093,-0.06718 0.258381,-0.07235 0.372069,-0.118856 h 0.05168 z"
         id="path3686" />
    </g>
    <g
       aria-label="right "
       id="text3317"
       style="font-size:10.5833px;line-height:1.25;stroke-width:0.264583"
       transform="matrix(-1,0,0,1,206.92101,-17.662145)">
      <path
         d="m 160.23512,35.829582 h -0.0517 q -0.21704,-0.05168 -0.42375,-0.07235 -0.20154,-0.02584 -0.48059,-0.02584 -0.44958,0 -0.86816,0.201537 -0.41858,0.19637 -0.80615,0.511596 v 4.097928 h -0.97151 v -5.77224 h 0.97151 v 0.852659 q 0.57878,-0.465087 1.01802,-0.656289 0.44442,-0.19637 0.90434,-0.19637 0.25321,0 0.3669,0.0155 0.11369,0.01034 0.34106,0.04651 z"
         id="path3760" />
      <path
         d="m 162.20399,33.803872 h -1.09554 v -1.007687 h 1.09554 z m -0.062,6.738586 h -0.97152 v -5.77224 h 0.97152 z"
         id="path3757" />
      <path
         d="m 168.75654,39.886169 q 0,1.467606 -0.66662,2.1549 -0.66663,0.687295 -2.05155,0.687295 -0.45992,0 -0.89917,-0.06718 -0.43408,-0.06201 -0.85782,-0.180867 v -0.992185 h 0.0517 q 0.23771,0.09302 0.75447,0.227376 0.51677,0.139526 1.03353,0.139526 0.49609,0 0.82165,-0.118856 0.32556,-0.118855 0.50643,-0.330728 0.18087,-0.201537 0.25838,-0.485757 0.0775,-0.284219 0.0775,-0.635618 v -0.527098 q -0.43925,0.351399 -0.84233,0.527098 -0.3979,0.170532 -1.01802,0.170532 -1.03352,0 -1.6433,-0.744138 -0.60462,-0.749306 -0.60462,-2.108392 0,-0.744138 0.20671,-1.281571 0.21187,-0.542601 0.5736,-0.935341 0.3359,-0.366901 0.81649,-0.568439 0.48059,-0.206705 0.95601,-0.206705 0.50126,0 0.83716,0.103353 0.34106,0.09818 0.7183,0.30489 l 0.062,-0.248047 h 0.9095 z m -0.97151,-0.930173 v -3.147085 q -0.38758,-0.175699 -0.72347,-0.248046 -0.33073,-0.07751 -0.66146,-0.07751 -0.80098,0 -1.2609,0.537433 -0.45992,0.537433 -0.45992,1.560623 0,0.971514 0.34107,1.472774 0.34106,0.50126 1.13171,0.50126 0.42374,0 0.84749,-0.160197 0.42891,-0.165364 0.78548,-0.439248 z"
         id="path3754" />
      <path
         d="m 175.49513,40.542458 h -0.97152 v -3.286611 q 0,-0.397907 -0.0465,-0.744138 -0.0465,-0.351399 -0.17053,-0.547769 -0.12919,-0.21704 -0.37207,-0.320393 -0.24288,-0.10852 -0.63045,-0.10852 -0.39791,0 -0.83199,0.19637 -0.43408,0.19637 -0.83198,0.50126 v 4.309801 h -0.97152 V 32.50163 h 0.97152 v 2.909374 q 0.45475,-0.377237 0.9405,-0.589109 0.48576,-0.211873 0.99736,-0.211873 0.93534,0 1.42626,0.563271 0.49093,0.563272 0.49093,1.622635 z"
         id="path3751" />
      <path
         d="m 180.36303,40.490781 q -0.27388,0.07235 -0.59944,0.118856 -0.3204,0.04651 -0.57361,0.04651 -0.88367,0 -1.34358,-0.475421 -0.45992,-0.475422 -0.45992,-1.52445 v -3.06957 h -0.65629 V 34.77022 h 0.65629 v -1.65881 h 0.97151 v 1.658808 h 2.00504 v 0.816486 h -2.00504 v 2.630322 q 0,0.454751 0.0207,0.713132 0.0207,0.253214 0.1447,0.475422 0.11368,0.206705 0.31005,0.30489 0.20154,0.09302 0.60978,0.09302 0.23771,0 0.49609,-0.06718 0.25839,-0.07235 0.37207,-0.118856 h 0.0517 z"
         id="path3748" />
    </g>
    <g
       aria-label="swipe to pay"
       transform="matrix(-1,0,0,1,0,-15.345837)"
       id="text4092"
       style="font-size:10.5833px;line-height:1.25;stroke-width:0.264583">
      <path
         d="m -113.35292,99.50635 q 0,0.79065 -0.65628,1.29707 -0.65113,0.50643 -1.78284,0.50643 -0.64078,0 -1.17822,-0.14986 -0.53226,-0.15503 -0.89399,-0.33589 v -1.090374 h 0.0517 q 0.45992,0.346234 1.02319,0.552934 0.56327,0.20154 1.08004,0.20154 0.64078,0 1.00252,-0.20671 0.36173,-0.2067 0.36173,-0.651117 0,-0.341063 -0.19637,-0.516762 -0.19637,-0.1757 -0.75447,-0.299723 -0.20671,-0.04651 -0.5426,-0.10852 -0.33073,-0.06201 -0.60462,-0.134358 -0.75964,-0.201537 -1.08003,-0.589109 -0.31523,-0.39274 -0.31523,-0.961179 0,-0.356566 0.1447,-0.671792 0.14986,-0.315225 0.44958,-0.563271 0.28939,-0.242878 0.7338,-0.382404 0.44959,-0.144694 1.00252,-0.144694 0.51677,0 1.04386,0.129191 0.53227,0.124023 0.88367,0.30489 v 1.038693 h -0.0517 q -0.37207,-0.273884 -0.90433,-0.459919 -0.53227,-0.191202 -1.04386,-0.191202 -0.53227,0 -0.89917,0.206705 -0.3669,0.201537 -0.3669,0.604612 0,0.356567 0.22221,0.537433 0.21704,0.180867 0.70279,0.294555 0.26872,0.06201 0.59945,0.124023 0.33589,0.06201 0.5581,0.113688 0.67696,0.155029 1.04386,0.532266 0.3669,0.382404 0.3669,1.012854 z"
         id="path1005" />
      <path
         d="m -104.69714,95.398087 -1.50378,5.772243 h -0.89917 l -1.48311,-4.44933 -1.47277,4.44933 h -0.894 l -1.51928,-5.772243 h 1.01285 l 1.05937,4.469997 1.44176,-4.469997 h 0.80099 l 1.47794,4.469997 1.00252,-4.469997 z"
         id="path1007" />
      <path
         d="m -102.25285,94.431741 h -1.09554 v -1.007687 h 1.09554 z m -0.062,6.738589 h -0.97151 v -5.772243 h 0.97151 z"
         id="path1009" />
      <path
         d="m -95.302396,98.214444 q 0,0.702797 -0.201538,1.286739 -0.201537,0.578777 -0.568439,0.981847 -0.341063,0.38241 -0.806149,0.59428 -0.459919,0.2067 -0.976682,0.2067 -0.449583,0 -0.816485,-0.0982 -0.361734,-0.0982 -0.738971,-0.30489 v 2.41845 h -0.97151 v -7.901303 h 0.97151 v 0.604612 q 0.387572,-0.32556 0.868162,-0.5426 0.485757,-0.222208 1.033525,-0.222208 1.043861,0 1.622635,0.790647 0.583942,0.785479 0.583942,2.185906 z m -1.00252,0.02584 q 0,-1.043861 -0.356566,-1.560623 -0.356566,-0.516763 -1.095537,-0.516763 -0.418578,0 -0.842323,0.180867 -0.423746,0.180867 -0.811318,0.475421 v 3.271104 q 0.413411,0.18604 0.707965,0.25322 0.299723,0.0672 0.676959,0.0672 0.811318,0 1.266069,-0.547771 0.454751,-0.547769 0.454751,-1.622635 z"
         id="path1011" />
      <path
         d="m -88.956551,98.384975 h -4.252957 q 0,0.532266 0.160196,0.930173 0.160197,0.39274 0.439249,0.645954 0.268716,0.248048 0.635618,0.372068 0.372069,0.12402 0.816485,0.12402 0.589109,0 1.183386,-0.23254 0.599445,-0.23771 0.852659,-0.465086 h 0.05168 v 1.059366 q -0.490925,0.2067 -1.00252,0.34623 -0.511595,0.13952 -1.074866,0.13952 -1.4366,0 -2.24275,-0.77514 -0.80615,-0.780311 -0.80615,-2.211744 0,-1.415929 0.769977,-2.247917 0.775144,-0.831988 2.036045,-0.831988 1.167883,0 1.798334,0.682126 0.635618,0.682127 0.635618,1.93786 z m -0.945676,-0.744138 q -0.0052,-0.764809 -0.387572,-1.183386 -0.377237,-0.418578 -1.152381,-0.418578 -0.780311,0 -1.245398,0.459919 -0.459919,0.459918 -0.52193,1.142045 z"
         id="path1013" />
      <path
         d="m -80.765863,101.11865 q -0.273884,0.0724 -0.599444,0.11886 -0.320393,0.0465 -0.573607,0.0465 -0.883664,0 -1.343583,-0.47542 -0.459919,-0.47542 -0.459919,-1.524448 v -3.06957 h -0.656288 v -0.816485 h 0.656288 v -1.658808 h 0.971514 v 1.658808 h 2.005039 v 0.816485 h -2.005039 v 2.630322 q 0,0.454751 0.02067,0.713133 0.02067,0.253213 0.144693,0.475423 0.113688,0.2067 0.310058,0.30489 0.201537,0.093 0.60978,0.093 0.237711,0 0.496092,-0.0672 0.258381,-0.0724 0.372069,-0.11886 h 0.05168 z"
         id="path1015" />
      <path
         d="m -74.668064,98.28679 q 0,1.410763 -0.723468,2.22725 -0.723467,0.81648 -1.93786,0.81648 -1.224727,0 -1.948195,-0.81648 -0.7183,-0.816487 -0.7183,-2.22725 0,-1.410762 0.7183,-2.227247 0.723468,-0.821652 1.948195,-0.821652 1.214393,0 1.93786,0.821652 0.723468,0.816485 0.723468,2.227247 z m -1.002519,0 q 0,-1.121375 -0.439249,-1.663975 -0.439248,-0.547769 -1.21956,-0.547769 -0.790646,0 -1.229895,0.547769 -0.43408,0.5426 -0.43408,1.663975 0,1.085202 0.439248,1.648473 0.439248,0.558107 1.224727,0.558107 0.775144,0 1.214393,-0.552939 0.444416,-0.558104 0.444416,-1.653641 z"
         id="path1017" />
      <path
         d="m -64.358648,98.214444 q 0,0.702797 -0.201537,1.286739 -0.201538,0.578777 -0.568439,0.981847 -0.341064,0.38241 -0.80615,0.59428 -0.459919,0.2067 -0.976681,0.2067 -0.449584,0 -0.816485,-0.0982 -0.361734,-0.0982 -0.738971,-0.30489 v 2.41845 h -0.971514 v -7.901303 h 0.971514 v 0.604612 q 0.387572,-0.32556 0.868161,-0.5426 0.485757,-0.222208 1.033526,-0.222208 1.04386,0 1.622634,0.790647 0.583942,0.785479 0.583942,2.185906 z m -1.002519,0.02584 q 0,-1.043861 -0.356567,-1.560623 -0.356566,-0.516763 -1.095537,-0.516763 -0.418577,0 -0.842323,0.180867 -0.423745,0.180867 -0.811317,0.475421 v 3.271104 q 0.41341,0.18604 0.707965,0.25322 0.299722,0.0672 0.676959,0.0672 0.811317,0 1.266068,-0.547771 0.454752,-0.547769 0.454752,-1.622635 z"
         id="path1019" />
      <path
         d="m -58.359034,101.17033 h -0.966346 v -0.61495 q -0.129191,0.0879 -0.351399,0.24804 -0.21704,0.15503 -0.423745,0.24805 -0.242878,0.11886 -0.558104,0.19637 -0.315225,0.0827 -0.73897,0.0827 -0.780312,0 -1.322913,-0.51676 -0.542601,-0.51676 -0.542601,-1.317745 0,-0.656288 0.279052,-1.059363 0.28422,-0.408243 0.80615,-0.640786 0.527098,-0.232543 1.266069,-0.315225 0.73897,-0.08268 1.586461,-0.124023 v -0.149862 q 0,-0.330728 -0.118855,-0.547768 -0.113688,-0.21704 -0.330728,-0.341063 -0.206706,-0.118856 -0.496093,-0.160197 -0.289387,-0.04134 -0.604612,-0.04134 -0.382404,0 -0.852658,0.103353 -0.470254,0.09819 -0.971514,0.289387 h -0.05168 V 95.52211 q 0.28422,-0.07751 0.821653,-0.170532 0.537433,-0.09302 1.059364,-0.09302 0.60978,0 1.059363,0.103353 0.454751,0.09819 0.785479,0.341063 0.325561,0.237711 0.496093,0.614948 0.170531,0.377236 0.170531,0.93534 z m -0.966346,-1.421101 v -1.607132 q -0.444416,0.02584 -1.049028,0.07751 -0.599445,0.05168 -0.950844,0.149862 -0.418577,0.118855 -0.676959,0.372069 -0.258381,0.248046 -0.258381,0.687294 0,0.496092 0.299722,0.749308 0.299723,0.24805 0.91467,0.24805 0.511595,0 0.935341,-0.19637 0.423745,-0.20154 0.785479,-0.480595 z"
         id="path1021" />
      <path
         d="m -51.48609,95.398087 -3.369293,7.901303 h -1.038693 l 1.074867,-2.40812 -2.299594,-5.493183 h 1.054195 l 1.772496,4.278795 1.787999,-4.278795 z"
         id="path1023" />
    </g>
    <ellipse
       style="fill:none;stroke:#ff00fe;stroke-width:0.1;stroke-miterlimit:4;stroke-dasharray:none;stroke-opacity:1"
       id="path1088"
       cx="64.232132"
       cy="23.040133"
       rx="0.88313198"
       ry="0.88313329" />
    <ellipse
       style="fill:none;stroke:#ff00fe;stroke-width:0.1;stroke-miterlimit:4;stroke-dasharray:none;stroke-opacity:1"
       id="path1088-7"
       cx="64.471428"
       cy="52.512135"
       rx="0.88313198"
       ry="0.88313329" />
    <ellipse
       style="fill:none;stroke:#ff00fe;stroke-width:0.1;stroke-miterlimit:4;stroke-dasharray:none;stroke-opacity:1"
       id="path1088-7-0"
       cx="69.683128"
       cy="60.933132"
       rx="0.88313198"
       ry="0.88313329" />
    <ellipse
       style="fill:none;stroke:#ff00fe;stroke-width:0.1;stroke-miterlimit:4;stroke-dasharray:none;stroke-opacity:1"
       id="path1088-7-0-5"
       cx="69.637299"
       cy="95.233131"
       rx="0.88313198"
       ry="0.88313329" />
    <ellipse
       style="fill:none;stroke:#ff00fe;stroke-width:0.1;stroke-miterlimit:4;stroke-dasharray:none;stroke-opacity:1"
       id="path1088-7-0-53"
       cx="107.04963"
       cy="65.433144"
       rx="0.88313198"
       ry="0.88313329" />
    <ellipse
       style="fill:none;stroke:#ff00fe;stroke-width:0.1;stroke-miterlimit:4;stroke-dasharray:none;stroke-opacity:1"
       id="path1088-7-0-5-8"
       cx="107.04963"
       cy="90.203972"
       rx="0.88313198"
       ry="0.88313329" />
    <ellipse
       style="fill:none;stroke:#ff00fe;stroke-width:0.1;stroke-miterlimit:4;stroke-dasharray:none;stroke-opacity:1"
       id="path1088-0"
       cx="-116.07145"
       cy="23.052439"
       rx="0.88313198"
       ry="0.88313329"
       transform="scale(-1,1)" />
    <ellipse
       style="fill:none;stroke:#ff00fe;stroke-width:0.1;stroke-miterlimit:4;stroke-dasharray:none;stroke-opacity:1"
       id="path1088-7-8"
       cx="-115.83213"
       cy="52.524445"
       rx="0.88313198"
       ry="0.88313329"
       transform="scale(-1,1)" />
  </g>
</svg>
